<svg width="1453" height="166" viewBox="0 0 1453 166" fill="none" xmlns="http://www.w3.org/2000/svg">
<path d="M158.182 43.5898C167.496 43.5899 175.548 46.1166 181.39 50.3809H207.912V56.6982H187.389C190.073 60.8046 191.651 65.7014 191.651 71.0713C191.651 87.8124 177.758 98.5518 158.023 98.5518C153.919 98.5517 150.129 98.0778 146.656 97.2881C141.762 101.236 138.921 105.501 138.921 108.502C138.921 112.135 142.078 114.03 149.656 114.346L167.812 115.293C186.915 116.241 203.808 120.822 203.808 135.983C203.807 148.776 187.862 165.359 155.498 165.359C133.554 165.359 118.555 157.305 118.555 146.407C118.555 138.668 126.922 133.93 141.289 130.613C130.869 129.034 125.344 123.822 125.344 116.715C125.344 108.66 132.921 101.869 142.078 95.8672C131.185 91.6029 124.554 82.7584 124.554 71.0713C124.554 54.33 138.447 43.5898 158.182 43.5898ZM768.322 43.5898C777.637 43.5899 785.689 46.1166 791.53 50.3809H818.053V56.6982H797.529C800.213 60.8046 801.792 65.7014 801.792 71.0713C801.792 87.8124 787.898 98.5518 768.164 98.5518C764.059 98.5517 760.27 98.0778 756.797 97.2881C751.903 101.236 749.062 105.501 749.062 108.502C749.062 112.135 752.219 114.03 759.797 114.346L777.952 115.293C797.055 116.241 813.948 120.821 813.948 135.983C813.948 148.776 798.003 165.359 765.639 165.359C743.694 165.359 728.696 157.305 728.695 146.407C728.695 138.668 737.063 133.93 751.43 130.613C741.01 129.034 735.484 123.822 735.484 116.715C735.484 108.66 743.062 101.869 752.219 95.8672C741.325 91.6029 734.694 82.7584 734.694 71.0713C734.694 54.33 748.588 43.5898 768.322 43.5898ZM146.499 131.245C138.132 134.088 135.132 138.984 135.132 144.195C135.132 153.356 146.972 158.41 161.497 158.41C176.653 158.41 191.336 153.356 191.336 141.984C191.336 134.404 182.81 132.666 169.391 132.034L146.973 131.245H146.499ZM756.64 131.245C748.272 134.088 745.273 138.984 745.272 144.195C745.272 153.356 757.113 158.41 771.638 158.41C786.794 158.41 801.477 153.356 801.477 141.984C801.476 134.404 792.951 132.666 779.531 132.034L757.113 131.245H756.64ZM1261.55 32.8086C1269.65 32.8086 1276.61 34.7625 1282.44 38.6699C1288.3 42.5774 1292.8 48.2499 1295.95 55.6865C1299.1 63.0917 1300.66 72.0726 1300.63 82.6289C1300.63 93.2481 1299.05 102.323 1295.9 109.854C1292.78 117.386 1288.31 123.137 1282.48 127.107C1276.66 131.078 1269.68 133.062 1261.55 133.062C1253.43 133.031 1246.43 131.03 1240.57 127.06C1234.75 123.089 1230.26 117.339 1227.11 109.808C1223.99 102.276 1222.45 93.2167 1222.48 82.6289C1222.48 72.0725 1224.04 63.0754 1227.15 55.6387C1230.3 48.2019 1234.79 42.5459 1240.62 38.6699C1246.48 34.7626 1253.46 32.8087 1261.55 32.8086ZM1414.75 68.5283C1415.94 68.2762 1417.17 68.0553 1418.43 67.8662C1419.72 67.6456 1421.03 67.5352 1422.35 67.5352C1428.31 67.5352 1433.58 68.8744 1438.18 71.5527C1442.78 74.2312 1446.39 77.9344 1449 82.6611C1451.65 87.3878 1452.97 92.8549 1452.97 99.0625C1452.97 105.711 1451.47 111.526 1448.48 116.505C1445.49 121.484 1441.38 125.359 1436.15 128.132C1430.92 130.873 1424.95 132.244 1418.24 132.244C1411.78 132.244 1405.86 130.952 1400.48 128.368C1395.12 125.784 1390.84 122.05 1387.62 117.166C1384.41 112.282 1382.82 106.389 1382.85 99.4883C1382.85 96.085 1383.29 92.6969 1384.17 89.3252C1385.09 85.9536 1386.46 82.472 1388.29 78.8799C1390.11 75.2876 1392.43 71.4269 1395.23 67.2988L1417.63 34.1172H1438.23L1414.75 68.5283ZM448.307 0C448.149 8.37066 447.833 18.7947 447.833 34.9043V103.449C447.833 117.979 447.991 119.085 459.516 119.559V122.243L430.624 131.246L428.414 116.084C423.046 124.454 415.153 132.035 403.154 132.035C382.788 132.035 370 112.135 370 90.3398C370 62.3852 389.577 43.5909 410.416 43.5908C416.1 43.5908 422.573 44.8544 427.94 49.4346V28.9023C427.94 14.2143 426.835 14.0561 413.731 13.7402V11.0557L448.307 0ZM1058.45 0C1058.29 8.37066 1057.97 18.7947 1057.97 34.9043V103.449C1057.97 117.979 1058.13 119.085 1069.66 119.559V122.243L1040.76 131.246L1038.55 116.084C1033.19 124.454 1025.29 132.035 1013.29 132.035C992.929 132.035 980.141 112.135 980.141 90.3398C980.141 62.3851 999.717 43.5909 1020.56 43.5908C1026.24 43.5908 1032.71 44.8544 1038.08 49.4346V28.9023C1038.08 14.2143 1036.98 14.0561 1023.87 13.7402V11.0557L1058.45 0ZM83.043 43.5898C102.146 43.59 116.039 55.4352 117.302 77.7041H60.9395V78.9678C60.9395 104.553 74.6751 116.715 91.7256 116.715C102.461 116.715 110.671 112.766 115.723 107.555L117.617 109.134C112.249 118.452 101.04 132.034 81.9375 132.034C56.9932 132.034 43.2579 114.03 43.2578 89.5498C43.2578 64.5957 61.2561 43.5898 83.043 43.5898ZM244.949 43.5898C264.052 43.59 277.945 55.4352 279.208 77.7041H222.846V78.9678C222.846 104.553 236.581 116.715 253.632 116.715C264.367 116.715 272.577 112.766 277.629 107.555L279.523 109.134C274.156 118.452 262.947 132.034 243.844 132.034C218.899 132.034 205.164 114.03 205.164 89.5498C205.164 64.5957 223.162 43.5898 244.949 43.5898ZM693.168 43.5898C712.271 43.59 726.164 55.4352 727.427 77.7041H671.065V78.9678C671.065 104.553 684.8 116.715 701.851 116.715C712.586 116.715 720.796 112.766 725.848 107.555L727.742 109.134C722.374 118.452 711.165 132.034 692.062 132.034C667.118 132.034 653.383 114.03 653.383 89.5498C653.383 64.5957 671.381 43.5898 693.168 43.5898ZM855.082 43.5898C874.185 43.59 888.078 55.4352 889.341 77.7041H832.979V78.9678C832.979 104.553 846.714 116.715 863.765 116.715C874.5 116.715 882.71 112.766 887.762 107.555L889.656 109.134C884.288 118.452 873.079 132.034 853.977 132.034C829.032 132.034 815.297 114.03 815.297 89.5498C815.297 64.5957 833.295 43.5898 855.082 43.5898ZM492.54 43.7305C499.329 43.7305 508.17 45.1515 513.538 47.5205L514.327 73.1064H511.327C507.854 57.4709 499.644 49.7324 490.172 49.7324C482.278 49.7325 476.279 53.5226 476.279 59.8398C476.279 65.8413 481.173 69.7897 487.804 73.5801L496.487 78.4766C511.012 86.6892 519.379 92.375 519.379 105.642C519.379 122.699 502.96 132.018 487.488 132.018C479.91 132.018 468.859 129.964 462.07 126.489V96.6396H465.07C468.228 116.697 476.437 125.384 487.962 125.384C496.487 125.384 503.907 121.593 503.907 112.591C503.907 106.431 499.171 102.483 491.436 98.0605L483.067 93.4805C471.7 87.0051 462.229 80.6875 462.229 67.4209C462.229 51.1536 478.489 43.7306 492.54 43.7305ZM1102.7 43.7305C1109.48 43.7305 1118.33 45.1515 1123.69 47.5205L1124.48 73.1064H1121.48C1118.01 57.4709 1109.8 49.7324 1100.33 49.7324C1092.43 49.7325 1086.44 53.5226 1086.44 59.8398C1086.44 65.8413 1091.33 69.7897 1097.96 73.5801L1106.64 78.4766C1121.17 86.6892 1129.54 92.375 1129.54 105.642C1129.54 122.699 1113.12 132.018 1097.64 132.018C1090.07 132.018 1079.02 129.964 1072.23 126.489V96.6396H1075.23C1078.38 116.697 1086.59 125.384 1098.12 125.384C1106.64 125.384 1114.06 121.593 1114.06 112.591C1114.06 106.431 1109.33 102.483 1101.59 98.0605L1093.22 93.4805C1081.86 87.0051 1072.38 80.6875 1072.38 67.4209C1072.38 51.1536 1088.65 43.7306 1102.7 43.7305ZM1181.06 32.8086C1187.99 32.8086 1194.02 34.0373 1199.16 36.4951C1204.32 38.9215 1208.34 42.2934 1211.21 46.6104C1214.07 50.9274 1215.5 55.8756 1215.5 61.4531C1215.5 65.1083 1214.78 68.7167 1213.33 72.2773C1211.91 75.838 1209.38 79.7922 1205.72 84.1406C1202.07 88.4577 1196.92 93.6421 1190.27 99.6924L1176.15 113.541V114.203H1216.78V130.936H1147.8V116.188L1182.24 84.2832C1185.17 81.4472 1187.63 78.8948 1189.61 76.626C1191.63 74.3572 1193.16 72.1352 1194.2 69.9609C1195.23 67.7551 1195.75 65.3757 1195.75 62.8232C1195.75 59.9873 1195.11 57.5453 1193.82 55.4971C1192.53 53.4173 1190.76 51.8256 1188.53 50.7227C1186.29 49.5883 1183.75 49.0215 1180.92 49.0215C1177.96 49.0215 1175.37 49.62 1173.17 50.8174C1170.96 52.0148 1169.26 53.7325 1168.07 55.9697C1166.87 58.207 1166.27 60.8699 1166.27 63.958H1146.85C1146.85 57.6243 1148.29 52.1256 1151.15 47.4619C1154.02 42.7982 1158.03 39.1901 1163.2 36.6377C1168.37 34.0854 1174.32 32.8086 1181.06 32.8086ZM1340.51 32.8086C1347.44 32.8086 1353.48 34.0373 1358.61 36.4951C1363.78 38.9215 1367.79 42.2933 1370.66 46.6104C1373.52 50.9274 1374.96 55.8756 1374.96 61.4531C1374.96 65.1083 1374.23 68.7167 1372.78 72.2773C1371.37 75.838 1368.83 79.7922 1365.18 84.1406C1361.52 88.4577 1356.37 93.6421 1349.73 99.6924L1335.6 113.541V114.203H1376.23V130.936H1307.25V116.188L1341.69 84.2832C1344.62 81.4472 1347.08 78.8948 1349.07 76.626C1351.08 74.3572 1352.61 72.1352 1353.65 69.9609C1354.69 67.7551 1355.21 65.3757 1355.21 62.8232C1355.21 59.9873 1354.56 57.5453 1353.27 55.4971C1351.98 53.4173 1350.21 51.8256 1347.98 50.7227C1345.74 49.5883 1343.21 49.0215 1340.37 49.0215C1337.41 49.0215 1334.83 49.62 1332.62 50.8174C1330.42 52.0148 1328.72 53.7325 1327.52 55.9697C1326.32 58.207 1325.72 60.8699 1325.72 63.958H1306.3C1306.3 57.6243 1307.74 52.1256 1310.6 47.4619C1313.47 42.7982 1317.49 39.1901 1322.65 36.6377C1327.82 34.0854 1333.77 32.8086 1340.51 32.8086ZM591.438 84.3408H610.856V100.925H591.438V129.984H571.388V100.925H520.867V91.6064L574.387 15.4805H591.438V84.3408ZM32.9961 0C32.8382 8.37066 32.5225 18.7947 32.5225 34.9043V107.239C32.5225 123.507 32.6803 125.718 45.1523 127.14V129.982H0V127.14C12.4722 125.718 12.6299 123.507 12.6299 107.239V28.4287C12.6299 13.7406 11.5249 13.5825 0 13.2666V10.582L32.9961 0ZM643.129 0C642.971 8.37066 642.655 18.7947 642.655 34.9043V107.239C642.655 123.507 642.813 125.718 655.285 127.14V129.982H610.133V127.14C622.605 125.718 622.763 123.507 622.763 107.239V28.4287C622.763 13.7406 621.658 13.5825 610.133 13.2666V10.582L643.129 0ZM335.844 43.5898C349.263 43.59 359.841 52.7503 359.841 73.5977V107.238C359.841 123.506 359.999 125.717 372.471 127.139V129.981H328.896V127.139C339.79 125.717 339.948 123.506 339.948 107.238V77.3887C339.948 63.8061 335.054 57.0146 325.266 57.0146C319.109 57.0147 313.741 59.3839 310.741 63.4902V107.238C310.741 123.506 310.9 125.717 321.793 127.139V129.981H278.219V127.139C290.691 125.717 290.849 123.506 290.849 107.238V72.0186C290.849 57.3304 289.744 57.1723 278.219 56.8564V54.1719L310.583 43.5898V59.2256C316.74 51.1708 323.214 43.5898 335.844 43.5898ZM946.039 43.5898C959.458 43.59 970.036 52.7503 970.036 73.5977V107.238C970.036 123.506 970.194 125.717 982.666 127.139V129.981H939.092V127.139C949.985 125.717 950.144 123.506 950.144 107.238V77.3887C950.144 63.8061 945.249 57.0146 935.461 57.0146C929.304 57.0147 923.936 59.3839 920.937 63.4902V107.238C920.937 123.506 921.095 125.717 931.988 127.139V129.981H888.414V127.139C900.886 125.717 901.044 123.506 901.044 107.238V72.0186C901.044 57.3304 899.939 57.1723 888.414 56.8564V54.1719L920.778 43.5898V59.2256C926.935 51.1708 933.409 43.5898 946.039 43.5898ZM410.89 49.1182C397.155 49.1183 390.523 62.8594 390.523 81.9697C390.524 102.343 399.839 118.769 414.363 118.769C419.889 118.769 424.941 116.241 427.94 112.293V57.8047C424.941 52.7508 418.625 49.1182 410.89 49.1182ZM1021.03 49.1182C1007.3 49.1183 1000.66 62.8594 1000.66 81.9697C1000.66 102.343 1009.98 118.769 1024.5 118.769C1030.03 118.768 1035.08 116.241 1038.08 112.293V57.8047C1035.08 52.7508 1028.77 49.1182 1021.03 49.1182ZM1418.15 83.2754C1415.12 83.2754 1412.46 83.9843 1410.16 85.4023C1407.86 86.7889 1406.07 88.7274 1404.78 91.2168C1403.48 93.6745 1402.84 96.4945 1402.84 99.6768C1402.84 102.922 1403.48 105.791 1404.78 108.28C1406.07 110.77 1407.86 112.723 1410.16 114.141C1412.46 115.559 1415.12 116.269 1418.15 116.269C1421.14 116.269 1423.77 115.559 1426.04 114.141C1428.34 112.723 1430.12 110.769 1431.38 108.28C1432.67 105.791 1433.31 102.954 1433.31 99.7715C1433.31 96.5261 1432.65 93.6745 1431.33 91.2168C1430.04 88.7274 1428.24 86.7889 1425.94 85.4023C1423.68 83.9844 1421.08 83.2754 1418.15 83.2754ZM1261.55 49.5889C1256.04 49.589 1251.63 52.3459 1248.32 57.8604C1245.01 63.3749 1243.34 71.6314 1243.31 82.6289C1243.31 90.0654 1244.05 96.2732 1245.53 101.252C1247.05 106.199 1249.17 109.918 1251.91 112.407C1254.65 114.865 1257.87 116.094 1261.55 116.094C1267.1 116.094 1271.52 113.305 1274.83 107.728C1278.14 102.15 1279.77 93.7838 1279.74 82.6289C1279.74 75.2869 1278.99 69.1733 1277.48 64.2891C1276 59.4048 1273.88 55.7333 1271.14 53.2754C1268.43 50.8176 1265.24 49.5889 1261.55 49.5889ZM156.445 48.8018C147.604 48.8018 143.184 55.4351 143.184 67.2803C143.184 80.0732 149.972 93.3398 159.761 93.3398C168.602 93.3396 173.021 86.7064 173.021 74.8613C173.021 62.0686 166.233 48.8021 156.445 48.8018ZM766.586 48.8018C757.745 48.8018 753.324 55.4351 753.324 67.2803C753.324 80.0732 760.113 93.3398 769.901 93.3398C778.742 93.3396 783.162 86.7064 783.162 74.8613C783.162 62.0686 776.374 48.8021 766.586 48.8018ZM534.603 84.3408H571.388V32.0635L534.603 84.3408ZM80.6748 49.749C69.3078 49.749 62.9925 58.278 61.2559 71.3867H97.4092C96.7777 56.225 89.8314 49.7492 80.6748 49.749ZM242.581 49.749C231.214 49.749 224.899 58.278 223.162 71.3867H259.315C258.684 56.225 251.738 49.7492 242.581 49.749ZM690.8 49.749C679.433 49.749 673.118 58.278 671.381 71.3867H707.534C706.903 56.225 699.956 49.7492 690.8 49.749ZM852.714 49.749C841.347 49.749 835.032 58.278 833.295 71.3867H869.448C868.817 56.225 861.87 49.7492 852.714 49.749Z" fill="white"/>
</svg>
